# xmcd
#
# Track frame offsets:
#	150
#	21497
#	35017
#	54909
#	67304
#	88047
#	115020
#	130571
#	149686
#	153926
#	167727
#
# Disc length: 2451 seconds
#
# Revision: 0
# Processed by: cddbd v1.5.1PL2 Copyright (c) Steve Scherf et al.
# Submitted via: dBpowerAMP V4.0
#
DISCID=9809910b
DTITLE=Kalamath Brothers - Kalamath Brothers
DYEAR=2001
DGENRE=Alt Country
TTITLE0=Only Son
TTITLE1=Glory
TTITLE2=Come Along
TTITLE3=Some Killing
TTITLE4=Love Henri
TTITLE5=Raven
TTITLE6=Going Back to A
TTITLE7=Song o' Sorrow
TTITLE8=Ghost
TTITLE9=Dance
TTITLE10=Train Whistle
EXTD=
EXTT0=
EXTT1=
EXTT2=
EXTT3=
EXTT4=
EXTT5=
EXTT6=
EXTT7=
EXTT8=
EXTT9=
EXTT10=
PLAYORDER=
